                                Sucker.Punch.2011.BRRip.XviD-RLF
                                ~~~~~~~~~~~~~~~~~~~~~~~~~~~~~~~~


                                           General:


                  Complete name                    : rlf-punch.avi
                  Format                           : AVI
                  Format/Info                      : Audio Video Interleave
                  File size                        : 700 MiB
                  Duration                         : 1h 49mn
                  Overall bit rate                 : 892 Kbps Complete name      
                  Language                         : English
                  Subs                             : Cheeck google :)
                  Encoder                          : Ralf

                                            Video:

                  Format                           : MPEG-4 Visual
                  Format profile                   : Advanced Simple@L5
                  Format settings, BVOP            : 2
                  Format settings, QPel            : No
                  Format settings, GMC             : No warppoints
                  Format settings, Matrix          : (H.263)
                  Muxing mode                      : Packed bitstream
                  Codec ID/Hint                    : XviD
                  Duration                         : 1h 49mn
                  Bit rate                         : 751 Kbps
                  Width                            : 688 pixels
                  Height                           : 288 pixels
                  Display aspect ratio             : 2.35:1
                  Frame rate                       : 23.976 fps
                  Color space                      : YUV
                  Chroma subsampling               : 4:2:0
                  Bit depth                        : 8 bits
                  Scan type                        : Progressive
                  Bits/(Pixel*Frame)               : 0.158
                  Stream size                      : 590 MiB (84%)
                  Writing library                  : XviD 1.2.1 

                                            Audio:

                  Format                           : MPEG Audio
                  Format profile                   : Layer 3
                  Codec ID/Hint                    : MP3
                  Duration                         : 1h 49mn
                  Bit rate mode                    : Constant
                  Bit rate                         : 128 Kbps
                  Channel(s)                       : 2 channels
                  Sampling rate                    : 48.0 KHz
                  Compression mode                 : Lossy
                  Stream size                      : 100 MiB (14%)
                  Alignment                        : Split accross interleaves
                  Interleave, duration             : 24 ms (0.58 video frame)



                                         MOVIE INFO:

                  A young girl is institutionalized by her abusive stepfather. 
                  Retreating to an alternative reality as a coping strategy, 
                  she envisions a plan which will help her escape from the 
                                      mental facility.
                               
                             http://www.imdb.com/title/tt0978764/
                      http://www.filmweb.pl/film/Sucker+Punch-2011-501864

                                          SOURCE:

                                Felony 720p.BluRay.x264 (THX)
                           
                                                                          
                                                                     
                                          NOTES:

                    Some guys says that my previus releases had bad ar... 
                          and they right so... check this out :) 
    
                    And today i am too drunk to do subs... sorry :) and
                                sorry for my bad english :) 


